<svg viewBox="0 0 512 512" xmlns="http://www.w3.org/2000/svg">
  <path d="m45.654 446h410.316a36.562 36.562 0 0 0 36.5-36.538v-63.232h-117.316a133.308 133.308 0 0 1 -243.816 0h-111.811v73.617a26.17 26.17 0 0 0 26.127 26.153z" />
  <ellipse cx="253.246" cy="292.119" rx="58.527" ry="58.581" transform="matrix(1 -.001 .001 1 -.333 .289)" />
  <path d="m119.875 292.119a132.975 132.975 0 0 1 7.494-44.112h-107.842v88.223h107.842a132.969 132.969 0 0 1 -7.494-44.111z" />
  <rect height="18.384" rx="9.041" width="79.923" x="216.039" y="91.508" />
  <path d="m253.246 199.127a92.992 92.992 0 1 0 92.909 92.992 93.056 93.056 0 0 0 -92.909-92.992zm0 161.573a68.581 68.581 0 1 1 68.527-68.581 68.632 68.632 0 0 1 -68.527 68.581z" />
  <path d="m66.628 115.045h53.638v12.815h-53.638z" />
  <path d="m328.564 82.426a26.006 26.006 0 0 0 -24.251-16.426h-96.625a26 26 0 0 0 -24.252 16.422l-18.195 45.439h181.517zm-22.6 18.425a19.063 19.063 0 0 1 -19.041 19.041h-61.843a19.063 19.063 0 0 1 -19.041-19.041v-.3a19.062 19.062 0 0 1 19.041-19.04h61.84a19.062 19.062 0 0 1 19.041 19.04z" />
  <path d="m492.473 336.23v-88.223h-113.35a133.572 133.572 0 0 1 0 88.223z" />
  <path d="m431.349 197.813a12.308 12.308 0 1 0 -12.292-12.308 12.314 12.314 0 0 0 12.292 12.308z" />
  <path d="m253.246 158.64a133.553 133.553 0 0 1 121.908 79.367h117.319v-63.607a36.562 36.562 0 0 0 -36.5-36.538h-399.941a36.52 36.52 0 0 0 -36.5 36.537v63.61h111.806a133.553 133.553 0 0 1 121.908-79.369zm178.1 4.558a22.308 22.308 0 1 1 -22.292 22.307 22.325 22.325 0 0 1 22.295-22.305zm-391.346 9.802h-2a5 5 0 0 1 0-10h2a5 5 0 0 1 0 10zm21-5a5 5 0 0 1 5-5h92a5 5 0 0 1 0 10h-92a5 5 0 0 1 -5-5z" />
  <path d="m253.246 168.64c-68.027 0-123.371 55.392-123.371 123.479s55.344 123.481 123.371 123.481 123.371-55.393 123.371-123.479-55.344-123.481-123.371-123.481zm0 226.47a102.992 102.992 0 1 1 102.909-102.991 103.067 103.067 0 0 1 -102.909 102.991z" />
</svg>
