<svg viewBox="0 0 512 512" xmlns="http://www.w3.org/2000/svg">
  <path d="m256 245.157c-45.68 0-82.843 37.163-82.843 82.843s37.163 82.843 82.843 82.843 82.843-37.163 82.843-82.843-37.163-82.843-82.843-82.843zm29.203 92.947-14.221-10.491v45.538h-30v-45.538l-14.221 10.491-17.809-24.143 47.029-34.693 47.029 34.693z"/>
  <path d="m129.28 174.797 30.125-30.172h352.595v-54.25h-189.537l-60.25-60.25h-262.213v144.672z"/>
  <path d="m171.845 174.625-30.125 30.172h-141.72v277.078h512v-307.25zm84.155 266.218c-62.222 0-112.843-50.621-112.843-112.843s50.621-112.843 112.843-112.843 112.843 50.621 112.843 112.843-50.621 112.843-112.843 112.843z"/>
</svg>
