<svg xmlns="http://www.w3.org/2000/svg" xmlns:xlink="http://www.w3.org/1999/xlink"><defs><symbol viewBox="0 0 511.999 511.999" id="about"><path d="M438.09 273.32h-39.596c4.036 11.05 6.241 22.975 6.241 35.404v149.65c0 5.182-.902 10.156-2.543 14.782h65.461c24.453 0 44.346-19.894 44.346-44.346v-81.581c.001-40.753-33.155-73.909-73.909-73.909zM107.265 308.725c0-12.43 2.205-24.354 6.241-35.404H73.91c-40.754 0-73.91 33.156-73.91 73.91v81.581c0 24.452 19.893 44.346 44.346 44.346h65.462a44.144 44.144 0 0 1-2.543-14.783v-149.65zM301.261 234.815h-90.522c-40.754 0-73.91 33.156-73.91 73.91v149.65c0 8.163 6.618 14.782 14.782 14.782h208.778c8.164 0 14.782-6.618 14.782-14.782v-149.65c0-40.754-33.156-73.91-73.91-73.91zM256 38.84c-49.012 0-88.886 39.874-88.886 88.887 0 33.245 18.349 62.28 45.447 77.524 12.853 7.23 27.671 11.362 43.439 11.362s30.586-4.132 43.439-11.362c27.099-15.244 45.447-44.28 45.447-77.524 0-49.012-39.874-88.887-88.886-88.887zM99.918 121.689c-36.655 0-66.475 29.82-66.475 66.475 0 36.655 29.82 66.475 66.475 66.475a66.095 66.095 0 0 0 26.195-5.388c13.906-5.987 25.372-16.585 32.467-29.86a66.05 66.05 0 0 0 7.813-31.227c0-36.654-29.82-66.475-66.475-66.475zM412.082 121.689c-36.655 0-66.475 29.82-66.475 66.475a66.045 66.045 0 0 0 7.813 31.227c7.095 13.276 18.561 23.874 32.467 29.86a66.095 66.095 0 0 0 26.195 5.388c36.655 0 66.475-29.82 66.475-66.475 0-36.655-29.82-66.475-66.475-66.475z" /></symbol><symbol viewBox="0 0 469.44 469.44" id="eye-hide"><path d="m231.147 160.373 67.2 67.2.32-3.52c0-35.307-28.693-64-64-64l-3.52.32z" /><path d="M234.667 117.387c58.88 0 106.667 47.787 106.667 106.667 0 13.76-2.773 26.88-7.573 38.933l62.4 62.4c32.213-26.88 57.6-61.653 73.28-101.333-37.013-93.653-128-160-234.773-160-29.867 0-58.453 5.333-85.013 14.933l46.08 45.973c12.052-4.693 25.172-7.573 38.932-7.573zM21.333 59.253l48.64 48.64 9.707 9.707C44.48 145.12 16.64 181.707 0 224.053c36.907 93.653 128 160 234.667 160 33.067 0 64.64-6.4 93.547-18.027l9.067 9.067 62.187 62.293 27.2-27.093L48.533 32.053l-27.2 27.2zM139.307 177.12l32.96 32.96c-.96 4.587-1.6 9.173-1.6 13.973 0 35.307 28.693 64 64 64 4.8 0 9.387-.64 13.867-1.6l32.96 32.96c-14.187 7.04-29.973 11.307-46.827 11.307-58.88 0-106.667-47.787-106.667-106.667 0-16.853 4.267-32.64 11.307-46.933z" /></symbol><symbol viewBox="0 0 488.85 488.85" id="eye-show"><path d="M244.425 98.725c-93.4 0-178.1 51.1-240.6 134.1-5.1 6.8-5.1 16.3 0 23.1 62.5 83.1 147.2 134.2 240.6 134.2s178.1-51.1 240.6-134.1c5.1-6.8 5.1-16.3 0-23.1-62.5-83.1-147.2-134.2-240.6-134.2zm6.7 248.3c-62 3.9-113.2-47.2-109.3-109.3 3.2-51.2 44.7-92.7 95.9-95.9 62-3.9 113.2 47.2 109.3 109.3-3.3 51.1-44.8 92.6-95.9 95.9zm-3.1-47.4c-33.4 2.1-61-25.4-58.8-58.8 1.7-27.6 24.1-49.9 51.7-51.7 33.4-2.1 61 25.4 58.8 58.8-1.8 27.7-24.2 50-51.7 51.7z" /></symbol><symbol viewBox="0 0 512 512" id="gallery"><path d="M45.654 446H455.97a36.562 36.562 0 0 0 36.5-36.538V346.23H375.154a133.308 133.308 0 0 1-243.816 0H19.527v73.617A26.17 26.17 0 0 0 45.654 446z" /><ellipse cx="253.246" cy="292.119" rx="58.527" ry="58.581" transform="translate(-.333 .289)" /><path d="M119.875 292.119a132.975 132.975 0 0 1 7.494-44.112H19.527v88.223h107.842a132.969 132.969 0 0 1-7.494-44.111z" /><rect height="18.384" rx="9.041" width="79.923" x="216.039" y="91.508" /><path d="M253.246 199.127a92.992 92.992 0 1 0 92.909 92.992 93.056 93.056 0 0 0-92.909-92.992zm0 161.573a68.581 68.581 0 1 1 68.527-68.581 68.632 68.632 0 0 1-68.527 68.581zM66.628 115.045h53.638v12.815H66.628zM328.564 82.426A26.006 26.006 0 0 0 304.313 66h-96.625a26 26 0 0 0-24.252 16.422l-18.195 45.439h181.517zm-22.6 18.425a19.063 19.063 0 0 1-19.041 19.041H225.08a19.063 19.063 0 0 1-19.041-19.041v-.3a19.062 19.062 0 0 1 19.041-19.04h61.84a19.062 19.062 0 0 1 19.041 19.04zM492.473 336.23v-88.223h-113.35a133.572 133.572 0 0 1 0 88.223zM431.349 197.813a12.308 12.308 0 1 0-12.292-12.308 12.314 12.314 0 0 0 12.292 12.308z" /><path d="M253.246 158.64a133.553 133.553 0 0 1 121.908 79.367h117.319V174.4a36.562 36.562 0 0 0-36.5-36.538H56.032a36.52 36.52 0 0 0-36.5 36.537v63.61h111.806a133.553 133.553 0 0 1 121.908-79.369zm178.1 4.558a22.308 22.308 0 1 1-22.292 22.307 22.325 22.325 0 0 1 22.295-22.305zM40 173h-2a5 5 0 0 1 0-10h2a5 5 0 0 1 0 10zm21-5a5 5 0 0 1 5-5h92a5 5 0 0 1 0 10H66a5 5 0 0 1-5-5z" /><path d="M253.246 168.64c-68.027 0-123.371 55.392-123.371 123.479S185.219 415.6 253.246 415.6s123.371-55.393 123.371-123.479S321.273 168.64 253.246 168.64zm0 226.47a102.992 102.992 0 1 1 102.909-102.991A103.067 103.067 0 0 1 253.246 395.11z" /></symbol><symbol viewBox="0 0 485.017 485.017" id="login-key"><path d="M361.205 68.899c-14.663 0-28.447 5.71-38.816 16.078-21.402 21.403-21.402 56.228 0 77.631 10.368 10.368 24.153 16.078 38.815 16.078s28.447-5.71 38.816-16.078c21.402-21.403 21.402-56.228 0-77.631-10.368-10.368-24.153-16.078-38.815-16.078zm17.602 72.495c-4.702 4.702-10.953 7.292-17.603 7.292s-12.901-2.59-17.603-7.291c-9.706-9.706-9.706-25.499 0-35.205 4.702-4.702 10.953-7.291 17.603-7.291s12.9 2.589 17.603 7.291c9.706 9.706 9.706 25.498 0 35.204z" /><path d="M441.961 43.036C414.21 15.284 377.311 0 338.064 0c-39.248 0-76.146 15.284-103.897 43.036-42.226 42.226-54.491 105.179-32.065 159.698L.254 404.584l-.165 80.268 144.562.165v-55.722h55.705V373.59h55.705v-64.492l26.212-26.212c17.615 7.203 36.698 10.976 55.799 10.976 39.244 0 76.14-15.282 103.889-43.032 57.289-57.289 57.289-150.505 0-207.794zm-21.213 186.581c-22.083 22.083-51.445 34.245-82.676 34.245-18.133 0-36.237-4.265-52.353-12.333l-9.672-4.842-49.986 49.985v46.918h-55.705v55.705h-55.705v55.688l-84.5-.096.078-37.85L238.311 208.95l-4.842-9.672c-22.572-45.087-13.767-99.351 21.911-135.029C277.466 42.163 306.83 30 338.064 30c31.234 0 60.598 12.163 82.684 34.249 45.592 45.592 45.592 119.776 0 165.368z" /></symbol><symbol viewBox="0 0 480.063 480.063" id="login-user"><path d="M402.032 424.806v47.257a8 8 0 0 1-16 0v-47.257c0-36.795-29.775-66.572-66.573-66.571-17.411 0-33.208-8.87-42.259-23.728a8 8 0 0 1 2.671-10.994 8 8 0 0 1 10.994 2.671c6.122 10.051 16.811 16.051 28.594 16.051 45.637-.002 82.573 36.93 82.573 82.571zm-139.606-80.193a8 8 0 0 1-6.113 9.52c-21.054 4.587-42.467-.005-59.516-11.642-16.878 18.087-39.176 15.744-36.191 15.744-36.795-.001-66.573 29.773-66.573 66.571v47.257a8 8 0 0 1-16 0v-47.257c0-45.636 36.929-82.571 82.571-82.571 18.462 0 33.429-14.875 33.429-33.342v-2.107c-34.919-16.697-59.429-51.784-60.923-92.643-14.37-3.455-25.077-16.317-25.077-31.62V141.05c-.437-20.3 2.577-71.143 39.648-106.877C193.456-9.953 266.864-7.15 320.842 18.835c5.261 2.535 6.06 9.643 1.691 13.324 27.345 6.67 50.925 23.48 66.074 47.538.782 1.239 2.214 3.184 1.84 6.287-.232 1.931-.807 3.565-2.295 5.075-9.75 9.888-15.119 22.991-15.119 36.896v54.57a8 8 0 0 1-16 0v-54.57c0-16.037 5.479-31.259 15.542-43.487-15.338-21.936-39.268-36.044-66.332-38.942l-14.061-1.506c-8.222-.88-9.835-12.207-2.194-15.352l6.395-2.633C213.097-3 124.032 29.261 124.032 140.963v41.56c0 6.348 3.656 11.865 9 14.636v-51.863c0-30.878 25.122-56 56-56h102c30.878 0 56 25.12 56 55.997v65.503c0 69.574-67.988 122.42-137.17 102.053a48.914 48.914 0 0 1-4.186 16.336c13.458 9.242 30.453 12.97 47.23 9.314a8.001 8.001 0 0 1 9.52 6.114zm-22.394-43.425c50.178 0 91-40.822 91-91v-64.895c0-22.054-17.944-39.997-40-39.997h-102c-22.056 0-40 17.944-40 40v64.892c0 50.178 40.822 91 91 91zm81 137.875h-24a8 8 0 0 0 0 16h24a8 8 0 0 0 0-16z" /></symbol><symbol viewBox="0 0 512.005 512" id="logout"><path d="M320 277.336c-11.797 0-21.332 9.559-21.332 21.332v85.336c0 11.754-9.559 21.332-21.336 21.332h-64v-320c0-18.219-11.605-34.496-29.055-40.555l-6.316-2.113h99.371c11.777 0 21.336 9.578 21.336 21.336v64c0 11.773 9.535 21.332 21.332 21.332s21.332-9.559 21.332-21.332v-64c0-35.285-28.715-64-64-64H48c-.812 0-1.492.363-2.281.469-1.028-.086-2.008-.47-3.051-.47C19.137.004 0 19.138 0 42.669v384c0 18.219 11.605 34.496 29.055 40.555L157.44 510.02c4.352 1.343 8.68 1.984 13.227 1.984 23.531 0 42.664-19.137 42.664-42.668v-21.332h64c35.285 0 64-28.715 64-64v-85.336c0-11.773-9.535-21.332-21.332-21.332zm0 0" /><path d="m505.75 198.254-85.336-85.332a21.33 21.33 0 0 0-23.25-4.633C389.207 111.598 384 119.383 384 128.004v64h-85.332c-11.777 0-21.336 9.555-21.336 21.332 0 11.777 9.559 21.332 21.336 21.332H384v64c0 8.621 5.207 16.406 13.164 19.715a21.335 21.335 0 0 0 23.25-4.63l85.336-85.335c8.34-8.34 8.34-21.824 0-30.164zm0 0" /></symbol><symbol viewBox="0 0 510 510" id="preview"><path d="M255 180c-41.355 0-75 33.645-75 75 4.12 99.498 145.895 99.469 150-.001C330 213.645 296.355 180 255 180zm0 120c-24.813 0-45-20.187-45-45 2.472-59.699 87.537-59.681 90 0 0 24.813-20.187 45-45 45zM405 0v30h75v75h30V0zM480 480h-75v30h105V405h-30zM30 405H0v105h105v-30H30zM30 30h75V0H0v105h30z" /><path d="m501.213 255-53.107-53.106c-101.653-105.946-284.562-105.941-386.213 0L8.787 255l53.107 53.106c101.653 105.946 284.562 105.941 386.213 0zm-450 0 31.893-31.894a243.944 243.944 0 0 1 28.19-24.203c-8.374 36.128-8.374 76.065 0 112.193a243.944 243.944 0 0 1-28.19-24.203zm98.589 79.151c-19.657-48.139-19.657-110.163 0-158.303 66.295-31.749 144.101-31.749 210.397 0 19.656 48.14 19.656 110.164 0 158.303-66.296 31.749-144.102 31.749-210.397 0zm248.902-23.054c8.374-36.128 8.374-76.065 0-112.193a243.944 243.944 0 0 1 28.19 24.203L458.787 255l-31.893 31.894a244.042 244.042 0 0 1-28.19 24.203z" /></symbol><symbol viewBox="0 0 512 512" id="upload"><path d="M256 245.157c-45.68 0-82.843 37.163-82.843 82.843S210.32 410.843 256 410.843 338.843 373.68 338.843 328 301.68 245.157 256 245.157zm29.203 92.947-14.221-10.491v45.538h-30v-45.538l-14.221 10.491-17.809-24.143 47.029-34.693 47.029 34.693zM129.28 174.797l30.125-30.172H512v-54.25H322.463l-60.25-60.25H0v144.672z" /><path d="m171.845 174.625-30.125 30.172H0v277.078h512v-307.25zM256 440.843c-62.222 0-112.843-50.621-112.843-112.843S193.778 215.157 256 215.157 368.843 265.778 368.843 328 318.222 440.843 256 440.843z" /></symbol><symbol viewBox="0 0 491.398 491.398" id="upload-images"><path d="M481.765 220.422 276.474 15.123c-16.967-16.918-44.557-16.942-61.559.023L9.626 220.422c-12.835 12.833-12.835 33.65 0 46.483 12.843 12.842 33.646 12.842 46.487 0l27.828-27.832v214.872c0 19.343 15.682 35.024 35.027 35.024h74.826v-97.62c0-7.584 6.146-13.741 13.743-13.741h76.352c7.59 0 13.739 6.157 13.739 13.741v97.621h74.813c19.346 0 35.027-15.681 35.027-35.024V239.091l27.812 27.815a32.774 32.774 0 0 0 23.243 9.63c8.408 0 16.819-3.209 23.242-9.63 12.844-12.834 12.844-33.65 0-46.484z" /></symbol></defs></svg>